<?xml version="1.0" encoding="UTF-8"?>
<svg width="622px" height="714px" viewBox="0 0 622 714" version="1.1" xmlns="http://www.w3.org/2000/svg" xmlns:xlink="http://www.w3.org/1999/xlink">
    <!-- Generator: Sketch 42 (36781) - http://www.bohemiancoding.com/sketch -->
    <title>Group</title>
    <desc>Created with Sketch.</desc>
    <defs>
        <rect id="path-1" x="0" y="0" width="622" height="714"></rect>
    </defs>
    <g id="Onboarding" stroke="none" stroke-width="1" fill="none" fill-rule="evenodd">
        <g id="Home" transform="translate(0.000000, -70.000000)">
            <g id="Hero" transform="translate(0.000000, 70.000000)">
                <g id="Group">
                    <mask id="mask-2" fill="white">
                        <use xlink:href="#path-1"></use>
                    </mask>
                    <use id="Mask" fill="#FF9800" xlink:href="#path-1"></use>
                    <g id="Sun" mask="url(#mask-2)" fill-rule="nonzero" fill="#FFB74D">
                        <g transform="translate(-199.000000, 322.000000)">
                            <path d="M591.322714,273.664732 L528.552848,210.039803 L541.952478,121.641634 C543.275327,112.922662 537.34365,104.759577 528.643455,103.327563 L440.439461,88.8120563 L399.417064,9.36649296 C395.365966,1.51961972 385.755684,-1.59616901 377.872956,2.36352113 L297.988613,42.5324225 L218.102256,2.36553521 C210.217515,-1.5981831 200.609246,1.51760563 196.556135,9.36850704 L155.537764,88.8120563 L67.333771,103.327563 C58.6335758,104.759577 52.701899,112.922662 54.0247475,121.641634 L67.4243771,210.039803 L4.65451178,273.664732 C-1.53488889,279.938606 -1.53488889,290.025141 4.65451178,296.299014 L67.4243771,359.923944 L54.0247475,448.322113 C52.701899,457.041085 58.6335758,465.204169 67.333771,466.636183 L155.537764,481.15169 L196.560162,560.597254 C199.419286,566.135986 205.046929,569.320254 210.88196,569.320254 C213.316242,569.320254 215.784754,568.76638 218.104269,567.598211 L297.988613,527.42931 L377.87497,567.598211 C385.755684,571.557901 395.363953,568.444127 399.421091,560.595239 L440.439461,481.149676 L528.643455,466.634169 C537.34365,465.202155 543.27734,457.03907 541.952478,448.320099 L528.552848,359.92193 L591.322714,296.297 C597.512114,290.025141 597.512114,279.938606 591.322714,273.664732 Z M297.988613,483.369197 C188.629111,483.369197 99.6620135,394.374859 99.6620135,284.981873 C99.6620135,175.588887 188.629111,86.5945493 297.988613,86.5945493 C407.348114,86.5945493 496.315212,175.590901 496.315212,284.981873 C496.315212,394.372845 407.348114,483.369197 297.988613,483.369197 Z" id="Shape"></path>
                            <ellipse id="Oval" cx="297.988613" cy="284.981873" rx="166.111111" ry="166.161972"></ellipse>
                        </g>
                    </g>
                </g>
            </g>
        </g>
    </g>
</svg>